<svg width="445" height="81" viewBox="0 0 445 81" fill="none" xmlns="http://www.w3.org/2000/svg">
<path d="M0.51 1.99999H18.33C24.3433 1.99999 28.8533 3.61333 31.86 6.84C34.8667 10.0667 36.37 14.7967 36.37 21.03V28.62C36.37 34.8533 34.8667 39.5833 31.86 42.81C28.8533 46.0367 24.3433 47.65 18.33 47.65H12.61V79H0.51V1.99999ZM18.33 36.65C20.31 36.65 21.7767 36.1 22.73 35C23.7567 33.9 24.27 32.03 24.27 29.39V20.26C24.27 17.62 23.7567 15.75 22.73 14.65C21.7767 13.55 20.31 13 18.33 13H12.61V36.65H18.33ZM59.4416 1.99999H77.3716C83.605 1.99999 88.1516 3.46666 91.0116 6.4C93.8716 9.26 95.3016 13.6967 95.3016 19.71V24.44C95.3016 32.4333 92.6616 37.4933 87.3816 39.62V39.84C90.315 40.72 92.3683 42.5167 93.5416 45.23C94.7883 47.9433 95.4116 51.5733 95.4116 56.12V69.65C95.4116 71.85 95.485 73.6467 95.6316 75.04C95.7783 76.36 96.145 77.68 96.7316 79H84.4116C83.9716 77.7533 83.6783 76.58 83.5316 75.48C83.385 74.38 83.3116 72.4 83.3116 69.54V55.46C83.3116 51.94 82.725 49.4833 81.5516 48.09C80.4516 46.6967 78.5083 46 75.7216 46H71.5416V79H59.4416V1.99999ZM75.9416 35C78.3616 35 80.1583 34.3767 81.3316 33.13C82.5783 31.8833 83.2016 29.7933 83.2016 26.86V20.92C83.2016 18.1333 82.6883 16.1167 81.6616 14.87C80.7083 13.6233 79.1683 13 77.0416 13H71.5416V35H75.9416ZM120.307 1.99999H153.307V13H132.407V33.35H149.017V44.35H132.407V68H153.307V79H120.307V1.99999ZM192.713 80.1C186.846 80.1 182.409 78.45 179.403 75.15C176.396 71.7767 174.893 66.9733 174.893 60.74V56.34H186.333V61.62C186.333 66.6067 188.423 69.1 192.603 69.1C194.656 69.1 196.196 68.5133 197.223 67.34C198.323 66.0933 198.873 64.1133 198.873 61.4C198.873 58.1733 198.139 55.35 196.673 52.93C195.206 50.4367 192.493 47.4667 188.533 44.02C183.546 39.62 180.063 35.66 178.083 32.14C176.103 28.5467 175.113 24.5133 175.113 20.04C175.113 13.9533 176.653 9.26 179.733 5.96C182.813 2.58666 187.286 0.899996 193.153 0.899996C198.946 0.899996 203.309 2.58666 206.243 5.96C209.249 9.26 210.753 14.0267 210.753 20.26V23.45H199.313V19.49C199.313 16.85 198.799 14.9433 197.773 13.77C196.746 12.5233 195.243 11.9 193.263 11.9C189.229 11.9 187.213 14.3567 187.213 19.27C187.213 22.0567 187.946 24.66 189.413 27.08C190.953 29.5 193.703 32.4333 197.663 35.88C202.723 40.28 206.206 44.2767 208.113 47.87C210.019 51.4633 210.973 55.68 210.973 60.52C210.973 66.8267 209.396 71.6667 206.243 75.04C203.163 78.4133 198.653 80.1 192.713 80.1ZM234.41 1.99999H267.41V13H246.51V33.35H263.12V44.35H246.51V68H267.41V79H234.41V1.99999ZM290.871 1.99999H306.051L317.821 48.09H318.041V1.99999H328.821V79H316.391L301.871 22.79H301.651V79H290.871V1.99999ZM363.775 13H351.125V1.99999H388.525V13H375.875V79H363.775V13ZM426.613 80.1C420.746 80.1 416.31 78.45 413.303 75.15C410.296 71.7767 408.793 66.9733 408.793 60.74V56.34H420.233V61.62C420.233 66.6067 422.323 69.1 426.503 69.1C428.556 69.1 430.096 68.5133 431.123 67.34C432.223 66.0933 432.773 64.1133 432.773 61.4C432.773 58.1733 432.04 55.35 430.573 52.93C429.106 50.4367 426.393 47.4667 422.433 44.02C417.446 39.62 413.963 35.66 411.983 32.14C410.003 28.5467 409.013 24.5133 409.013 20.04C409.013 13.9533 410.553 9.26 413.633 5.96C416.713 2.58666 421.186 0.899996 427.053 0.899996C432.846 0.899996 437.21 2.58666 440.143 5.96C443.15 9.26 444.653 14.0267 444.653 20.26V23.45H433.213V19.49C433.213 16.85 432.7 14.9433 431.673 13.77C430.646 12.5233 429.143 11.9 427.163 11.9C423.13 11.9 421.113 14.3567 421.113 19.27C421.113 22.0567 421.846 24.66 423.313 27.08C424.853 29.5 427.603 32.4333 431.563 35.88C436.623 40.28 440.106 44.2767 442.013 47.87C443.92 51.4633 444.873 55.68 444.873 60.52C444.873 66.8267 443.296 71.6667 440.143 75.04C437.063 78.4133 432.553 80.1 426.613 80.1Z" fill="#FEB827"/>
</svg>
