<?xml version="1.0" standalone="no"?>
<!DOCTYPE svg PUBLIC "-//W3C//DTD SVG 20010904//EN"
 "http://www.w3.org/TR/2001/REC-SVG-20010904/DTD/svg10.dtd">
<svg version="1.0" xmlns="http://www.w3.org/2000/svg"
 width="905.000000pt" height="1280.000000pt" viewBox="0 0 905.000000 1280.000000"
 preserveAspectRatio="xMidYMid meet">
<metadata>
Created by potrace 1.15, written by Peter Selinger 2001-2017
</metadata>
<g transform="translate(0.000000,1280.000000) scale(0.100000,-0.100000)"
fill="#000000" stroke="none">
<path d="M3063 10019 c-176 -26 -389 -106 -508 -193 l-50 -36 -3 24 c-6 44
-18 47 -223 44 l-194 -3 -3 -987 -2 -988 126 -170 126 -170 196 2 196 3 9 45
c16 90 61 212 97 269 76 117 187 157 414 149 142 -6 155 -9 467 -121 176 -63
259 -79 414 -79 152 0 222 11 329 52 42 17 79 30 81 30 1 0 -21 -44 -51 -97
-144 -261 -346 -778 -439 -1123 -57 -213 -68 -247 -102 -316 -47 -97 -91 -146
-155 -174 -54 -23 -56 -23 -263 -7 l-30 2 -3 -96 c-7 -249 99 -451 259 -496
33 -9 59 -19 59 -23 0 -37 -398 -1776 -424 -1855 -72 -214 -150 -349 -263
-456 -125 -118 -271 -174 -483 -187 l-115 -7 -2 -165 -3 -165 133 -138 132
-138 1410 3 1410 3 3 117 3 117 -140 169 c-130 156 -144 170 -187 182 -25 7
-72 30 -103 50 -161 104 -210 216 -197 449 10 167 28 257 222 1127 l177 792
74 12 c105 17 195 65 272 144 70 74 108 147 122 239 12 79 2 111 -43 131 -96
40 -178 138 -199 235 -9 41 -9 95 0 220 31 445 148 975 340 1543 87 257 169
455 286 693 172 349 311 559 483 732 50 51 92 97 92 101 0 8 -130 287 -178
381 -24 48 -71 63 -218 68 -185 8 -308 -15 -869 -163 l-260 -69 -235 0 c-144
0 -268 5 -320 13 -87 13 -339 76 -655 162 -227 63 -389 97 -535 116 -124 15
-378 17 -477 3z m512 -120 c111 -18 421 -93 840 -203 222 -58 339 -75 570 -83
245 -7 303 2 780 122 204 51 404 99 445 106 94 15 252 16 305 1 42 -12 48 -21
167 -297 7 -16 -1 -30 -43 -75 -461 -489 -938 -1679 -1088 -2714 -31 -209 -46
-469 -33 -544 20 -115 88 -219 187 -287 52 -36 55 -41 49 -69 -21 -105 -97
-192 -218 -252 -57 -28 -89 -37 -149 -41 -58 -4 -78 -10 -81 -22 -18 -58 -372
-1648 -388 -1741 -25 -144 -30 -417 -9 -500 43 -173 143 -283 312 -344 55 -20
63 -28 173 -166 107 -134 116 -148 116 -187 l0 -43 -1339 0 -1339 0 -106 114
-106 114 0 79 0 80 103 6 c116 6 208 31 309 84 184 96 341 322 447 643 25 78
451 1887 462 1969 4 23 0 25 -66 36 -86 15 -138 41 -193 95 -48 49 -79 123
-84 204 l-3 56 88 4 c74 3 98 9 152 35 76 38 116 83 173 196 52 105 88 206
118 334 91 384 368 1052 552 1330 57 87 72 131 39 118 -6 -2 -95 -32 -197 -65
-214 -70 -316 -87 -470 -79 -122 7 -203 28 -373 96 -204 83 -284 103 -433 108
-101 4 -149 2 -206 -11 -142 -32 -245 -97 -306 -194 -28 -44 -73 -160 -87
-224 l-5 -28 -128 0 -127 0 -107 141 -108 142 0 893 0 894 115 0 115 0 0 -90
c0 -61 4 -90 12 -90 6 0 52 40 103 89 258 250 602 334 1060 260z"/>
<path d="M3025 9850 c-266 -55 -475 -190 -613 -398 l-37 -55 -3 151 -3 152
-73 0 c-58 0 -75 -3 -80 -16 -8 -20 -8 -1668 0 -1688 5 -13 22 -16 80 -16 72
0 74 1 79 28 42 198 140 329 308 412 131 64 187 75 377 75 184 0 173 2 485
-95 357 -111 360 -112 555 -117 403 -11 780 93 1083 299 l62 42 -104 -114
c-435 -479 -814 -1198 -962 -1825 -74 -313 -151 -498 -242 -582 -68 -62 -130
-83 -243 -83 -97 0 -94 4 -63 -95 25 -83 78 -143 151 -175 73 -31 208 -26 288
12 147 68 243 216 258 400 8 90 26 104 30 24 6 -115 -56 -277 -144 -375 -47
-53 -116 -94 -187 -111 -26 -7 -49 -16 -52 -20 -2 -4 -93 -398 -200 -876 -231
-1026 -300 -1275 -412 -1482 -137 -254 -317 -381 -566 -399 l-88 -6 3 -46 3
-46 1245 0 1245 0 0 45 0 45 -85 7 c-146 12 -254 62 -343 157 -52 55 -78 102
-103 186 -25 79 -25 332 -1 491 13 81 374 1742 413 1900 5 20 -2 26 -58 52
-73 33 -119 81 -157 162 -24 50 -26 66 -26 180 0 102 4 132 19 163 27 54 40
47 29 -15 -4 -29 -8 -102 -8 -163 0 -125 16 -175 75 -233 63 -64 102 -77 225
-77 100 0 115 3 161 27 29 15 66 44 83 65 37 45 73 136 69 172 -3 23 -9 27
-54 32 -95 12 -184 76 -214 153 -46 121 -27 499 46 916 115 660 389 1437 674
1911 115 191 377 545 493 666 65 67 78 86 75 109 -4 38 -46 48 -178 41 -111
-6 -194 -24 -620 -135 -335 -88 -429 -102 -670 -102 -360 0 -581 35 -955 150
-219 67 -390 109 -515 126 -153 20 -442 17 -555 -6z m1679 -3975 c5 -13 -13
-15 -121 -15 -110 0 -124 2 -113 15 10 12 37 15 120 15 87 0 109 -3 114 -15z
m66 -179 c0 -2 3 -11 6 -20 6 -14 -20 -16 -241 -16 -247 0 -248 0 -230 20 17
19 31 20 242 20 122 0 223 -2 223 -4z m68 -216 c-3 -20 -10 -21 -351 -23
l-347 -2 0 23 0 22 351 0 c347 0 350 0 347 -20z m-48 -205 c0 -13 -46 -15
-350 -15 -304 0 -350 2 -350 15 0 13 46 15 350 15 304 0 350 -2 350 -15z m-36
-200 c-5 -13 -55 -15 -360 -15 -310 0 -353 2 -348 15 5 13 55 15 360 15 310 0
353 -2 348 -15z m-46 -197 c-4 -10 -86 -14 -356 -16 -309 -2 -352 0 -352 13 0
13 45 15 356 15 280 0 355 -3 352 -12z m-48 -198 c0 -20 -7 -20 -350 -20 -343
0 -350 0 -350 20 0 20 7 20 350 20 343 0 350 0 350 -20z m-40 -184 c0 -2 -3
-11 -6 -20 -5 -14 -46 -16 -355 -16 -342 0 -349 0 -349 20 0 20 7 20 355 20
195 0 355 -2 355 -4z m-52 -213 c-3 -17 -29 -18 -356 -21 -290 -2 -352 0 -352
11 0 8 3 17 7 20 3 4 163 7 355 7 327 0 349 -1 346 -17z m-44 -208 c-5 -13
-54 -15 -355 -15 -192 0 -349 4 -349 8 0 5 3 12 7 15 3 4 163 7 354 7 306 0
348 -2 343 -15z m-46 -197 c-4 -10 -85 -14 -351 -16 -304 -2 -347 0 -347 13 0
13 44 15 351 15 276 0 350 -3 347 -12z m-38 -182 c0 -2 -3 -11 -6 -20 -5 -14
-47 -16 -360 -16 -288 0 -354 2 -354 13 0 8 3 17 7 20 7 7 713 10 713 3z m-20
-211 l0 -25 -391 0 c-214 0 -388 3 -386 8 2 4 7 15 10 25 6 16 34 17 387 17
l380 0 0 -25z m18 -212 c3 -10 -92 -13 -452 -13 -251 0 -456 4 -456 8 0 5 3
12 7 15 3 4 207 6 451 5 346 -2 446 -6 450 -15z m32 -198 c0 -13 -67 -15 -540
-15 -475 0 -539 2 -534 15 5 13 75 15 540 15 468 0 534 -2 534 -15z"/>
</g>
</svg>