<svg width="674" height="443" viewBox="0 0 674 443" fill="none" xmlns="http://www.w3.org/2000/svg">
<path d="M260.716 14.5041C251.61 13.3571 239.918 14.3806 232.799 17.0545L229.816 18.1505L229.999 16.9163C230.311 14.6469 229.756 14.3315 219.528 11.6397L209.847 9.10043L196.02 58.1023L182.23 107.168L186.135 117.361L190.04 127.554L199.807 130.171L209.587 132.738L210.658 130.627C212.7 126.376 216.627 120.938 219.206 118.605C224.603 113.844 230.673 113.395 241.842 116.938C248.815 119.204 249.419 119.533 263.37 129.422C271.242 134.991 275.145 136.936 282.847 139.084C290.4 141.191 294.03 141.614 299.915 141.06C302.238 140.797 304.256 140.664 304.356 140.691C304.406 140.705 302.703 142.587 300.477 144.805C289.705 155.778 272.504 178.668 263.102 194.522C257.318 204.316 256.3 205.853 253.654 208.811C249.975 212.979 247.109 214.804 243.541 215.309C240.539 215.703 240.44 215.676 230.376 212.012L228.913 211.497L227.434 216.226C223.635 228.501 226.103 240.007 233.43 244.461C234.945 245.365 236.098 246.222 236.043 246.421C235.53 248.26 191.655 329.154 189.268 332.719C182.725 342.355 176.979 347.982 169.881 351.733C162.035 355.864 154.004 356.624 143.29 354.332L137.478 353.086L135.092 361.257L132.657 369.414L137.353 378.115L142 386.801L212.104 406.191L282.207 425.581L283.978 419.809L285.748 414.037L281.133 403.7C276.836 394.146 276.334 393.257 274.364 392.065C273.218 391.37 271.202 389.576 269.939 388.153C263.38 380.754 262.497 374.51 266.372 363.112C269.183 354.953 271.324 350.73 293.02 310.189L312.791 273.287L316.634 273.717C322.087 274.327 327.224 273.189 332.145 270.331C336.649 267.624 339.549 264.523 341.519 260.146C343.21 256.386 343.157 254.658 341.198 253.04C336.982 249.722 334.265 243.717 334.566 238.606C334.687 236.444 335.435 233.76 337.615 227.674C345.322 205.992 358.48 181.278 375.892 155.715C383.776 144.15 390.594 135.448 399.706 125.243C413.089 110.285 422.906 101.777 433.85 95.5638C437.041 93.7225 439.766 92.0188 439.821 91.82C439.932 91.4225 437.339 75.7577 436.256 70.4217C435.729 67.704 433.601 66.3074 426.366 64.0218C417.284 61.0607 410.854 60.499 380.927 60.0789L367.052 59.9045L355.375 56.648C348.219 54.6525 342.127 52.6857 339.654 51.5676C335.511 49.716 323.863 43.0934 309.353 34.4411C298.946 28.165 291.368 24.2306 284.376 21.2633C278.423 18.7996 265.829 15.1804 260.716 14.5041ZM284.494 27.562C289.76 29.9946 304.124 38.0172 323.42 49.2894C333.647 55.2478 339.225 57.7138 350.593 61.3124C362.67 65.0554 365.676 65.4119 391.041 66.0593C401.885 66.3521 412.488 66.7385 414.622 66.9589C419.501 67.5161 427.365 69.656 429.791 71.1358C431.712 72.3141 431.885 72.8444 433.973 88.2078C434.1 89.0998 433.508 89.6846 430.798 91.3386C401.114 109.248 360.922 161.769 339.126 211.119C334.689 221.074 330.341 233.786 329.947 237.692C329.348 243.684 331.285 249.794 335.262 254.545C337.347 257.054 337.427 257.344 336.741 258.652C334.242 263.579 329.26 266.848 322.416 268.153C319.196 268.754 317.481 268.758 314.444 268.126C311.507 267.521 310.43 267.542 310.115 268.096C308.417 270.729 268.793 344.829 266.709 349.229C263.471 356.038 259.44 369.534 259.333 373.949C259.072 383.141 262.517 389.993 270.069 395.366C272.525 397.122 272.812 397.63 276.365 406.011C279.825 414.153 280.078 414.973 279.538 416.911L278.942 419.047L212.408 400.492L145.873 381.937L142.186 374.803L138.499 367.67L139.594 363.744L140.702 359.769L145.903 360.898C151.75 362.208 156.668 362.24 162.421 361.006C172.895 358.786 183.828 349.732 193.543 335.25C195.866 331.721 242.102 247.736 243.785 243.814C244.303 242.727 244.132 242.572 241.005 241.111C236.939 239.174 234.716 237.161 232.731 233.716C231.025 230.616 230.51 226.509 231.384 222.415L232.011 219.591L236.439 220.611C240.158 221.488 241.433 221.522 244.477 220.979C248.78 220.144 251.391 218.462 255.789 213.637C259.828 209.14 263.017 204.62 266.281 198.676C276.124 180.856 299.145 151.502 312.14 140.238C316.178 136.705 317.533 134.727 315.714 134.915C315.388 134.932 310.55 135.189 305.024 135.415C293.42 135.928 288.116 135.359 280.575 132.828C274.61 130.789 270.876 128.623 263.371 122.889C254.385 115.937 250.687 113.835 243.352 111.522C238.389 109.923 235.976 109.358 232.964 109.214C225.465 108.836 219.446 110.638 215.071 114.613C213.07 116.411 209.226 121.552 207.643 124.538L207.007 125.86L200.647 124.086L194.336 122.326L190.973 113.837L187.575 105.285L199.95 60.9119L212.338 16.4895L218.053 18.0831L223.767 19.6768L222.52 24.1488C221.674 27.1799 221.471 28.6763 221.869 28.7872C222.167 28.8703 225.007 27.5202 228.22 25.7921C244.504 16.945 262.762 17.5382 284.494 27.562Z" fill="#FEB827"/>
<path d="M256.484 22.374C242.504 21.4208 230.248 25.2326 220.509 33.6557L217.908 35.8758L219.851 28.3312L221.809 20.7368L218.181 19.7252C215.299 18.9214 214.413 18.8349 213.984 19.4116C213.31 20.2945 190.472 102.183 190.593 103.287C190.661 104.003 191.464 104.387 194.346 105.191C197.924 106.189 198.037 106.167 198.66 104.894C203.49 95.638 210.175 90.4867 219.673 88.6906C227.07 87.3258 230.005 87.5553 239.446 90.1882C248.588 92.738 248.07 92.4862 262.229 101.63C278.429 112.092 278.565 112.184 288.185 115.134C308.057 121.266 328.231 121.322 346.142 115.285L349.805 114.057L343.057 118.281C314.805 136.054 286.009 166.528 269.966 195.633C261.951 210.16 255.562 218.286 249.876 221.199C245.638 223.337 242.266 223.521 236.651 221.955C231.831 220.611 232.036 220.454 232.204 225.803C232.296 230.274 234.098 233.989 237.282 236.591C240.48 239.143 247.257 240.765 251.759 239.986C260.006 238.644 266.827 232.62 270.122 223.685C271.767 219.324 272.855 218.878 271.945 222.908C270.65 228.706 265.324 235.896 259.593 239.546C256.523 241.529 252.527 242.61 248.763 242.471C247.374 242.458 246.107 242.587 245.902 242.744C245.747 242.915 235.766 261.231 223.825 283.5C198.129 331.28 191.25 342.697 182.816 351.431C172.489 362.153 161.785 365.969 149.162 363.413L144.707 362.492L144.218 364.819L143.73 367.147L205.593 384.399L267.457 401.652L268.08 399.416L268.704 397.18L264.577 395.654C257.489 393.035 252.815 389.054 249.709 383.1C247.888 379.646 247.247 376.951 247.169 372.43C247.021 368.158 250.527 355.587 253.923 348.019C255.692 344.174 296.647 266.643 300.775 259.332C301.3 258.408 301.036 258.013 298.613 255.945C295.443 253.293 293.823 250.271 293.057 245.719C292.557 242.902 292.68 242.079 294.259 236.415C295.673 231.347 296.287 229.911 297.462 228.579C299.552 226.27 300.101 226.798 298.695 229.726C298.095 231.112 296.884 234.683 296.039 237.714C294.307 243.926 294.409 246.632 296.537 250.331C298.78 254.385 300.538 255.571 306.65 257.276C311.619 258.661 312.406 258.72 315.024 258.165C316.673 257.822 318.913 256.893 320.049 256.085C322.511 254.362 325.561 250.339 325.861 248.495C326.031 247.311 325.788 247.029 323.621 246.157C319.067 244.244 315.532 239.83 315.108 235.589C314.499 228.939 320.681 210.419 330.087 190.71C344.948 159.509 369.33 124.697 390.06 105.094C398.421 97.1969 416.345 83.2375 423.786 78.8326C427.944 76.4041 428.854 75.6402 429.023 74.4558C429.351 72.5121 427.403 71.4332 420.747 69.9518C415.148 68.7118 410.774 68.456 388.069 68.0682C370.203 67.7985 365.338 67.1916 353.363 63.8519C335.475 58.8631 324.979 54.0615 307.988 43.1644C298.035 36.8004 290.12 32.3438 284.144 29.7668C276.819 26.6528 262.417 22.797 256.484 22.374ZM284.828 243.157C284.896 243.872 283.974 243.722 278.608 242.225C273.142 240.701 272.474 240.407 273.201 239.914C273.864 239.456 275.247 239.681 279.371 240.831C283.694 242.037 284.746 242.491 284.828 243.157ZM285.627 252.966C285.599 253.065 285.624 253.554 285.648 254.043C285.752 254.821 284.432 254.56 273.451 251.498C261.178 248.075 261.128 248.061 262.3 247.317C263.408 246.608 264.117 246.753 274.602 249.677C280.664 251.367 285.655 252.866 285.627 252.966ZM286.013 264.641C285.586 265.593 285.225 265.546 268.253 260.92L250.983 256.21L251.302 255.068L251.607 253.974L269.048 258.838C286.29 263.647 286.439 263.689 286.013 264.641ZM280.787 274.162C280.607 274.808 278.293 274.27 263.188 270.057C248.082 265.844 245.824 265.108 246.004 264.462C246.184 263.816 248.498 264.354 263.603 268.566C278.709 272.779 280.967 273.516 280.787 274.162ZM276.226 283.601C275.798 284.178 273.286 283.584 258.13 279.358C242.727 275.062 240.618 274.366 241.046 273.79C241.475 273.213 243.987 273.807 259.142 278.033C274.546 282.329 276.655 283.024 276.226 283.601ZM271.211 292.752C270.873 293.194 266.743 292.256 253.3 288.614C237.918 284.431 235.809 283.736 235.989 283.09C236.169 282.444 238.433 282.968 253.886 287.278C267.799 291.158 271.485 292.347 271.211 292.752ZM266.082 301.926C265.805 302.92 265.457 302.823 248.413 298.069C231.37 293.316 231.022 293.219 231.299 292.225C231.576 291.232 231.924 291.329 248.968 296.082C266.011 300.835 266.359 300.932 266.082 301.926ZM261.544 310.514C261.517 310.614 261.243 311.019 260.969 311.425C260.527 312.051 258.462 311.583 243.108 307.3C226.114 302.561 225.766 302.464 226.043 301.47C226.32 300.477 226.668 300.574 243.96 305.396C253.65 308.098 261.572 310.415 261.544 310.514ZM256.009 320.378C255.624 321.181 254.318 320.87 238.028 316.488C223.591 312.568 220.538 311.61 220.69 311.063C220.801 310.666 221.075 310.26 221.315 310.166C221.52 310.009 229.512 312.077 239.052 314.738C255.3 319.27 256.38 319.624 256.009 320.378ZM250.94 330.103C250.512 330.68 248.049 330.1 233.093 325.929C223.552 323.268 215.806 320.894 215.862 320.695C215.931 320.447 216.177 320.141 216.417 320.047C216.622 319.89 224.614 321.958 234.105 324.605C249.31 328.845 251.369 329.527 250.94 330.103ZM245.925 339.255C245.587 339.696 241.507 338.772 228.262 335.186C213.128 331.072 211.02 330.377 211.2 329.731C211.38 329.085 213.594 329.595 228.849 333.85C242.563 337.674 246.198 338.849 245.925 339.255ZM241.514 347.771C241.486 347.871 241.213 348.276 240.939 348.682C240.496 349.308 238.382 348.826 222.829 344.488C208.518 340.497 205.267 339.483 205.419 338.937C205.53 338.539 205.804 338.134 206.044 338.04C206.489 337.789 241.611 347.424 241.514 347.771ZM237.596 357.979L237.25 359.221L217.821 353.803C207.188 350.837 198.584 348.277 198.752 348.056C198.907 347.885 199.308 347.408 199.596 346.952C200.115 346.241 201.521 346.579 219.061 351.471L237.943 356.737L237.596 357.979ZM235.553 368.762C235.564 369.301 230.801 368.133 212.913 363.145C200.441 359.666 190.31 356.627 190.366 356.428C190.435 356.18 190.681 355.873 190.921 355.78C191.126 355.623 201.29 358.35 213.401 361.781C230.565 366.675 235.479 368.26 235.553 368.762ZM234.399 379.044C234.219 379.69 230.862 378.861 207.359 372.307C183.757 365.724 180.604 364.738 181.033 364.161C181.461 363.585 184.967 364.455 208.073 370.899C231.328 377.384 234.579 378.398 234.399 379.044Z" fill="#FEB827"/>
<path d="M10.414 72.8H0.984V64.6H28.864V72.8H19.434V122H10.414V72.8ZM45.5311 64.6H54.5511V87.97H64.2271V64.6H73.2471V122H64.2271V96.17H54.5511V122H45.5311V64.6ZM92.2647 64.6H116.865V72.8H101.285V87.97H113.667V96.17H101.285V113.8H116.865V122H92.2647V64.6Z" fill="#006AB7"/>
<path d="M440.414 188.8H430.984V180.6H458.864V188.8H449.434V238H440.414V188.8ZM475.531 180.6H500.131V188.8H484.551V203.97H496.933V212.17H484.551V229.8H500.131V238H475.531V180.6ZM524.59 180.6H536.808L546.156 238H537.136L535.496 226.602V226.766H525.246L523.606 238H515.242L524.59 180.6ZM534.43 218.976L530.412 190.604H530.248L526.312 218.976H534.43ZM562.832 180.6H575.706L581.446 221.682H581.61L587.35 180.6H600.224V238H591.696V194.54H591.532L584.972 238H577.428L570.868 194.54H570.704V238H562.832V180.6ZM630.981 238.82C626.608 238.82 623.301 237.59 621.059 235.13C618.818 232.615 617.697 229.035 617.697 224.388V221.108H626.225V225.044C626.225 228.761 627.783 230.62 630.899 230.62C632.43 230.62 633.578 230.183 634.343 229.308C635.163 228.379 635.573 226.903 635.573 224.88C635.573 222.475 635.027 220.37 633.933 218.566C632.84 216.707 630.817 214.493 627.865 211.924C624.148 208.644 621.551 205.692 620.075 203.068C618.599 200.389 617.861 197.383 617.861 194.048C617.861 189.511 619.009 186.012 621.305 183.552C623.601 181.037 626.936 179.78 631.309 179.78C635.628 179.78 638.881 181.037 641.067 183.552C643.309 186.012 644.429 189.565 644.429 194.212V196.59H635.901V193.638C635.901 191.67 635.519 190.249 634.753 189.374C633.988 188.445 632.867 187.98 631.391 187.98C628.385 187.98 626.881 189.811 626.881 193.474C626.881 195.551 627.428 197.492 628.521 199.296C629.669 201.1 631.719 203.287 634.671 205.856C638.443 209.136 641.04 212.115 642.461 214.794C643.883 217.473 644.593 220.616 644.593 224.224C644.593 228.925 643.418 232.533 641.067 235.048C638.771 237.563 635.409 238.82 630.981 238.82Z" fill="#006AB7"/>
<path d="M27.4 312.82C22.972 312.82 19.5827 311.563 17.232 309.048C14.8813 306.533 13.706 302.98 13.706 298.388V268.212C13.706 263.62 14.8813 260.067 17.232 257.552C19.5827 255.037 22.972 253.78 27.4 253.78C31.828 253.78 35.2173 255.037 37.568 257.552C39.9187 260.067 41.094 263.62 41.094 268.212V298.388C41.094 302.98 39.9187 306.533 37.568 309.048C35.2173 311.563 31.828 312.82 27.4 312.82ZM27.4 304.62C30.516 304.62 32.074 302.734 32.074 298.962V267.638C32.074 263.866 30.516 261.98 27.4 261.98C24.284 261.98 22.726 263.866 22.726 267.638V298.962C22.726 302.734 24.284 304.62 27.4 304.62ZM59.494 254.6H83.356V262.8H68.514V278.79H80.158V286.99H68.514V312H59.494V254.6Z" fill="#006AB7"/>
<path d="M341.362 328.6H350.382V351.97H360.058V328.6H369.078V386H360.058V360.17H350.382V386H341.362V328.6ZM395.066 328.6H407.284L416.632 386H407.612L405.972 374.602V374.766H395.722L394.082 386H385.718L395.066 328.6ZM404.906 366.976L400.888 338.604H400.724L396.788 366.976H404.906ZM433.308 328.6H444.624L453.398 362.958H453.562V328.6H461.598V386H452.332L441.508 344.098H441.344V386H433.308V328.6ZM492.328 386.82C487.955 386.82 484.647 385.59 482.406 383.13C480.165 380.615 479.044 377.035 479.044 372.388V369.108H487.572V373.044C487.572 376.761 489.13 378.62 492.246 378.62C493.777 378.62 494.925 378.183 495.69 377.308C496.51 376.379 496.92 374.903 496.92 372.88C496.92 370.475 496.373 368.37 495.28 366.566C494.187 364.707 492.164 362.493 489.212 359.924C485.495 356.644 482.898 353.692 481.422 351.068C479.946 348.389 479.208 345.383 479.208 342.048C479.208 337.511 480.356 334.012 482.652 331.552C484.948 329.037 488.283 327.78 492.656 327.78C496.975 327.78 500.227 329.037 502.414 331.552C504.655 334.012 505.776 337.565 505.776 342.212V344.59H497.248V341.638C497.248 339.67 496.865 338.249 496.1 337.374C495.335 336.445 494.214 335.98 492.738 335.98C489.731 335.98 488.228 337.811 488.228 341.474C488.228 343.551 488.775 345.492 489.868 347.296C491.016 349.1 493.066 351.287 496.018 353.856C499.79 357.136 502.387 360.115 503.808 362.794C505.229 365.473 505.94 368.616 505.94 372.224C505.94 376.925 504.765 380.533 502.414 383.048C500.118 385.563 496.756 386.82 492.328 386.82Z" fill="#006AB7"/>
</svg>
